inDegrees=no
num_controls=7
num_derivatives=13
num_iterations=117
num_multipliers=7
num_parameters=0
num_slacks=7
num_states=26
objective=0.516837
objective_accelerations=0.039733
objective_balance=0.002181
objective_effort=0.043685
objective_height=0.419617
objective_ligament=0.011620
solver_duration=1537.092077
status=Solve_Succeeded
success=true
DataType=double
version=3
OpenSimVersion=4.5
endheader
time	/jointset/ground_pelvis/pelvis_tilt/value	/jointset/ground_pelvis/pelvis_tx/value	/jointset/ground_pelvis/pelvis_ty/value	/jointset/hip_l/hip_flexion_l/value	/jointset/hip_l/hip_adduction_l/value	/jointset/hip_l/hip_rotation_l/value	/jointset/back/lumbar_extension/value	/jointset/patellofemoral_l/patellar_flexion_l/value	/jointset/knee_l/knee_flexion_l/value	/jointset/knee_l/knee_adduction_l/value	/jointset/knee_l/knee_rotation_l/value	/jointset/ankle_l/ankle_angle_l/value	/jointset/subtalar_l/subtalar_angle_l/value	/jointset/ground_pelvis/pelvis_tilt/speed	/jointset/ground_pelvis/pelvis_tx/speed	/jointset/ground_pelvis/pelvis_ty/speed	/jointset/hip_l/hip_flexion_l/speed	/jointset/hip_l/hip_adduction_l/speed	/jointset/hip_l/hip_rotation_l/speed	/jointset/back/lumbar_extension/speed	/jointset/patellofemoral_l/patellar_flexion_l/speed	/jointset/knee_l/knee_flexion_l/speed	/jointset/knee_l/knee_adduction_l/speed	/jointset/knee_l/knee_rotation_l/speed	/jointset/ankle_l/ankle_angle_l/speed	/jointset/subtalar_l/subtalar_angle_l/speed	/forceset/tau_hip_flexion_l	/forceset/tau_hip_adduction_l	/forceset/tau_hip_rotation_l	/forceset/tau_knee_flexion_l	/forceset/tau_ankle_angle_l	/forceset/tau_subtalar_angle_l	/forceset/tau_lumbar_extension	lambda_cid13_p0	lambda_cid13_p1	lambda_cid13_p2	lambda_cid13_p3	lambda_cid13_p4	lambda_cid13_p5	lambda_cid14_p0	/jointset/ground_pelvis/pelvis_tilt/accel	/jointset/ground_pelvis/pelvis_tx/accel	/jointset/ground_pelvis/pelvis_ty/accel	/jointset/hip_l/hip_flexion_l/accel	/jointset/hip_l/hip_adduction_l/accel	/jointset/hip_l/hip_rotation_l/accel	/jointset/back/lumbar_extension/accel	/jointset/patellofemoral_l/patellar_flexion_l/accel	/jointset/knee_l/knee_flexion_l/accel	/jointset/knee_l/knee_adduction_l/accel	/jointset/knee_l/knee_rotation_l/accel	/jointset/ankle_l/ankle_angle_l/accel	/jointset/subtalar_l/subtalar_angle_l/accel	gamma_cid13_p0	gamma_cid13_p1	gamma_cid13_p2	gamma_cid13_p3	gamma_cid13_p4	gamma_cid13_p5	gamma_cid14_p0
0.5	-0.1193584026756375	-0.05464664864432418	0.8249200099551055	0.8885724343225152	-0.3238273704294876	-0.1229884223524099	-0.7764965930646666	0.7881581805500167	0.7881581805500388	-0.1090009916833934	-0.1745282559835644	0.07316365398592478	-0.00631470277768832	-0.2042508190206208	-0.2075453106556039	-0.3399082505455642	1.495048289319296	-0.04141014458985243	0.4584321813222	-0.84777479136284	1.439428364619262	1.439428364619223	0.1310876608706776	2.919437365718353e-05	0.2398287779684919	0.03092210458651506	-0.2800319741890702	0.02571697096666753	-0.003371745031903692	-0.2100253123817882	0.1129610059080653	0.04506860763198821	0.327984899098928	-8.330466223454943	-19.54286007526494	4.292670466123058	-8.877885190778199	-702.1304351025676	-72.8320256659901	-14.90735585777027	0.282039830628923	0.6363426094790275	-0.1260705629962242	-1.401525359029946	0.2211528139982123	-0.330068245673769	1.65947762447782	-1.091448725317262	-1.091448725317256	-0.2953970132175409	0.02887781466818915	-0.02053530871215542	0.2358404121035584	-6.101036595820849e-08	-5.067873060698981e-07	9.076760269076937e-08	-5.331775915008427e-08	-9.136340808981103e-08	-5.796083887897803e-08	-8.442167973394533e-08
0.51	-0.1213865376020138	-0.05669014146844879	0.8215153872010246	0.9034505380352038	-0.3242308141475391	-0.1184219160987998	-0.7848903203072402	0.8024955509867884	0.802495550986818	-0.1077053264521073	-0.1745275091758285	0.07556023180175785	-0.005994318078241623	-0.2013464660632168	-0.2011399944252974	-0.3409377539768821	1.480353678265915	-0.03927716884288124	0.4547873575151111	-0.830868339446317	1.427823770292448	1.427823770292415	0.1280554730921524	0.0001048455399210357	0.2394397922867953	0.03314349899545517	-0.2866305522170425	0.02614036837237365	-0.003588450180582653	-0.2125249048473866	0.1131970674112509	0.04547197138358605	0.3343566722111667	-8.48342052676581	-19.64199406742306	4.252201796214507	-8.937209373212678	-706.1931262254016	-72.71458953189736	-14.38063909937471	0.299082826087461	0.6446064878881477	-0.07962655654014021	-1.536251334563209	0.209623558683335	-0.3940228413751155	1.721576631045975	-1.228240731137499	-1.228240731136488	-0.3056936179453899	-0.005351580177058867	-0.05514537977937288	0.2136444027553828	-8.12809515567742e-08	-3.847190128488057e-07	2.678184250928557e-07	-2.058871449333301e-08	-1.025651076847493e-07	-4.525056140964403e-08	-9.123604319349134e-08
0.52	-0.1233847390392557	-0.05866918505865396	0.8181028221479625	0.9181751311661457	-0.3246128773873919	-0.1138943247618918	-0.7931119134994874	0.8167102202913379	0.8167102202913732	-0.1064396958901633	-0.174526457925986	0.07795150672439789	-0.00565204834521228	-0.1982641211941641	-0.1946554638717154	-0.3414967103418245	1.464346172969688	-0.0371340489504409	0.4506491979820762	-0.8133479812975388	1.414888138174673	1.414888138174648	0.1250807270026129	9.00827948831634e-05	0.2387681993298609	0.0352991113030412	-0.2932291302450163	0.02656376577808082	-0.003805155329264798	-0.2150244973129856	0.1134331289144361	0.04587533513518375	0.3407284453234041	-8.639475143828081	-19.74151425775894	4.212856019034665	-9.022135012981138	-710.3254291782746	-72.6215901307645	-13.8509156406227	0.3176382129586117	0.6521854741341747	-0.03196114972111664	-1.664104207599365	0.2231816430920344	-0.4287353908629605	1.782258870928831	-1.357656283509318	-1.357656283509303	-0.2839086754203979	0.01079503240783436	-0.07705676375966193	0.2226839918327466	-1.126988667588671e-07	-2.417222657501833e-07	5.181313691767009e-07	2.47276201378549e-08	-1.252503319881806e-07	-2.914005058793835e-08	-1.046270255339122e-07
0.53	-0.1253512259914791	-0.06058307249295904	0.8146870323587997	0.9327331453693041	-0.3249736377399984	-0.1094093443007347	-0.8011553743204216	0.8307888845285212	0.8307888845285586	-0.1052045670743221	-0.1745252389008254	0.08033457247763739	-0.005288794289993549	-0.1950041049567157	-0.188117402406539	-0.3415810616353129	1.447045510459763	-0.03502083347098905	0.4462748061192998	-0.7952551212131849	1.400625886312552	1.40062588631253	0.1219456939492355	0.0001423308057392892	0.2377930417987691	0.03733374029727835	-0.2997490854913857	0.02702537539783343	-0.004005311632149278	-0.2173414032352007	0.1132435761624441	0.04617842060460375	0.3469514006630139	-8.93471970540504	-19.77251811964363	4.161907677838822	-8.898853057445958	-714.3750506124885	-72.424316870157	-13.31891353634354	0.334544557230855	0.6553192762257649	0.01532832600443058	-1.794737718656956	0.2049017946144946	-0.4527092360429387	1.83615882857415	-1.493310747869425	-1.493310747868952	-0.3282119103247035	0.0008618170724749878	-0.1155351690069208	0.1911092230867761	-1.265177341058631e-07	-1.416393053869573e-07	6.519763091227552e-07	5.110599114307498e-08	-1.322342260639635e-07	-1.357776190640036e-08	-1.085190300434294e-07
0.54	-0.1272842405357081	-0.06243143875390905	0.8112727991457355	0.9471118148581708	-0.3253133638789609	-0.1049702913886171	-0.809015234690235	0.8447183660250234	0.8447183660250607	-0.1040007708470243	-0.174523812969224	0.08270632867132166	-0.004905742570858912	-0.1915696395955548	-0.1815512292007003	-0.3411853951221172	1.42847723011112	-0.03292720622182906	0.4414636881742056	-0.7766278910734138	1.385051590038195	1.385051590038176	0.1188142092947273	0.0001314640825142795	0.2365062874187587	0.03925864408621875	-0.3062690407377544	0.02748698501758856	-0.004205467935052065	-0.2196583091574141	0.1130540234104532	0.04648150607402733	0.3531743560026236	-9.233568546146413	-19.80381021502582	4.112055897488807	-8.804066836051781	-718.5035591904127	-72.26522736200393	-12.7855052029595	0.3525280377010907	0.6578078222666605	0.06404241161573407	-1.917627775343173	0.2192639970336583	-0.5160806073265286	1.889132882012274	-1.620065165956388	-1.620065165956369	-0.2831989956465569	-0.001827914408403377	-0.1393761335433343	0.2007389507734	-1.208653144642412e-07	-8.903542822034051e-08	6.569630317248689e-07	5.653172154084103e-08	-1.21846435632561e-07	1.377983130696799e-09	-1.019015271655636e-07
0.55	-0.1291821165081722	-0.06421404609055237	0.8078649341151727	0.961298607234876	-0.3256322356717356	-0.1005811584493041	-0.8166862583060341	0.8584856154107822	0.8584856154108175	-0.1028284219430109	-0.1745225169724505	0.08506370062722551	-0.004503968173548249	-0.1879812451636393	-0.1749694908117306	-0.3403054385319473	1.408675281363256	-0.03085509940039667	0.4363080385168969	-0.7575017840730092	1.368181469059605	1.36818146905959	0.1156399242916053	0.0001260960373489814	0.2349170018765695	0.04107247704676854	-0.3124439802412637	0.02775552429383506	-0.004386069443278807	-0.2222077515320094	0.1130910906982809	0.04668459190374791	0.3590901340598136	-9.458672350703381	-19.80168936634637	4.05356949743121	-8.699423973219817	-722.5276354189874	-72.08557016686487	-12.2516565355695	0.3656286230848938	0.6584808429574981	0.1122749154303897	-2.042389256196922	0.1999088292812947	-0.523628136994375	1.935606811039218	-1.752988613542032	-1.752988613541437	-0.3368830394760505	-5.909073107568732e-06	-0.1763690278642578	0.1680742802200541	-1.13561119595579e-07	-4.951592920388635e-08	6.463243621216126e-07	5.832930383817133e-08	-1.097838901448405e-07	1.429830974411447e-08	-9.509674198607913e-08
0.5600000000000001	-0.1310433818408862	-0.06593081124415691	0.8044683291770542	0.9752811979577659	-0.3259306414353785	-0.09624524620497624	-0.8241637694114323	0.8720776629768107	0.8720776629768398	-0.1016882838464012	-0.1745212975880246	0.08740364687504629	-0.004084781684327216	-0.1842475116458034	-0.1683827925929409	-0.3389333766332681	1.387636899347835	-0.02883400039563524	0.4308195491771362	-0.7379253889932197	1.350011226091748	1.350011226091737	0.112372047815243	0.0001161416120829923	0.233021145802079	0.04274106246829	-0.3186189197447717	0.02802406357008532	-0.004566670951542853	-0.2247571939066028	0.11312815798611	0.04688767773347365	0.3650059121170038	-9.688216269489699	-19.79972506583258	3.996175414133647	-8.620823087558241	-726.6415581188851	-71.94328333094762	-11.71845118725057	0.3815958548851199	0.6587997882306686	0.162463473317607	-2.164914428854393	0.2090624336994613	-0.5826485438169126	1.979190497889246	-1.880089563809724	-1.880089563809728	-0.3019172902946268	-0.002745190428550338	-0.2006902400035546	0.171689442967738	-1.042747944544686e-07	-2.569768396762682e-08	6.169352218719126e-07	5.577310841497887e-08	-9.571163858953877e-08	2.477613424911683e-08	-8.80672180446522e-08
0.5700000000000001	-0.1328665983738095	-0.06758173756927	0.8010878843210865	0.989047439495922	-0.3262090127842135	-0.091965883622499	-0.831443356018555	0.8854817671618128	0.8854817671618291	-0.1005810414097707	-0.1745201620711394	0.0897232215038322	-0.003649513110177163	-0.1803699697299213	-0.1618065644983225	-0.3370747903482008	1.365417874756545	-0.02684763288319255	0.424995391593635	-0.7179292090215521	1.330612558363856	1.330612558363851	0.1090732516048462	0.0001073467240705128	0.2308507754070563	0.04429210462292365	-0.3245849551346653	0.02825230818802709	-0.004718615838671897	-0.2271870521965532	0.1129636941325138	0.04700221901376132	0.3706718830925343	-9.973329852427772	-19.74867526697305	3.929926363447747	-8.441682587107685	-730.5282703621046	-71.72708714857566	-11.18696374418883	0.3946955803244322	0.6564313752799041	0.2096592876130823	-2.279440709932931	0.1922381537183609	-0.5910129836606841	2.019240258246245	-1.999296440840961	-1.999296440840132	-0.3443266080609936	-0.0003697568889217582	-0.2316580209528159	0.1436611535412381	-9.464366373971744e-08	1.428063283415805e-09	5.873430510835725e-07	5.383658079288329e-08	-8.198979909187367e-08	3.451479936671285e-08	-8.039617294780464e-08
